<?xml version="1.0" encoding="UTF-8"?>
<svg xmlns="http://www.w3.org/2000/svg" version="1.1" width="320" height="320" viewBox="0 0 320 320"><rect x="0" y="0" width="320" height="320" fill="#fefefe"/><g transform="scale(7.111)"><g transform="translate(4,4)"><path fill-rule="evenodd" d="M9 0L9 1L8 1L8 2L9 2L9 3L8 3L8 4L10 4L10 7L11 7L11 4L12 4L12 5L13 5L13 6L12 6L12 9L13 9L13 8L14 8L14 9L17 9L17 8L16 8L16 7L17 7L17 6L18 6L18 8L19 8L19 9L18 9L18 10L15 10L15 11L14 11L14 12L15 12L15 13L12 13L12 11L13 11L13 10L10 10L10 12L8 12L8 13L7 13L7 12L5 12L5 8L0 8L0 9L1 9L1 10L2 10L2 11L1 11L1 12L0 12L0 13L1 13L1 14L0 14L0 16L1 16L1 15L2 15L2 14L3 14L3 12L4 12L4 15L5 15L5 14L6 14L6 15L7 15L7 14L9 14L9 16L8 16L8 17L7 17L7 16L6 16L6 17L5 17L5 18L4 18L4 19L2 19L2 18L1 18L1 17L0 17L0 18L1 18L1 19L0 19L0 29L1 29L1 21L2 21L2 20L3 20L3 22L2 22L2 24L3 24L3 25L2 25L2 26L4 26L4 27L3 27L3 28L2 28L2 29L5 29L5 28L4 28L4 27L7 27L7 28L6 28L6 29L8 29L8 31L9 31L9 29L10 29L10 31L11 31L11 29L12 29L12 30L13 30L13 31L12 31L12 33L13 33L13 32L14 32L14 33L15 33L15 35L14 35L14 36L15 36L15 37L16 37L16 34L17 34L17 33L18 33L18 35L19 35L19 36L17 36L17 37L19 37L19 36L20 36L20 37L21 37L21 36L22 36L22 35L19 35L19 34L20 34L20 33L21 33L21 32L23 32L23 31L20 31L20 33L18 33L18 32L19 32L19 30L20 30L20 29L21 29L21 30L25 30L25 31L24 31L24 32L25 32L25 33L22 33L22 34L24 34L24 35L23 35L23 36L25 36L25 37L26 37L26 36L27 36L27 37L28 37L28 36L29 36L29 35L30 35L30 37L31 37L31 36L33 36L33 37L34 37L34 36L33 36L33 35L36 35L36 36L35 36L35 37L37 37L37 32L36 32L36 31L37 31L37 28L36 28L36 27L37 27L37 18L36 18L36 20L35 20L35 21L36 21L36 22L35 22L35 23L36 23L36 25L35 25L35 26L34 26L34 24L31 24L31 23L33 23L33 22L34 22L34 20L31 20L31 19L35 19L35 16L34 16L34 13L35 13L35 14L36 14L36 15L37 15L37 14L36 14L36 13L37 13L37 10L36 10L36 11L35 11L35 9L36 9L36 8L35 8L35 9L34 9L34 8L33 8L33 9L34 9L34 10L33 10L33 12L32 12L32 10L30 10L30 8L29 8L29 5L27 5L27 4L29 4L29 1L27 1L27 0L26 0L26 3L25 3L25 1L24 1L24 2L21 2L21 1L22 1L22 0L20 0L20 2L19 2L19 3L16 3L16 2L18 2L18 1L19 1L19 0L18 0L18 1L15 1L15 0L14 0L14 1L11 1L11 2L10 2L10 0ZM14 1L14 2L12 2L12 4L14 4L14 5L16 5L16 6L15 6L15 7L14 7L14 6L13 6L13 7L14 7L14 8L15 8L15 7L16 7L16 6L17 6L17 4L15 4L15 1ZM20 2L20 3L19 3L19 4L18 4L18 5L19 5L19 8L20 8L20 9L19 9L19 10L18 10L18 11L16 11L16 12L18 12L18 13L15 13L15 14L17 14L17 16L18 16L18 17L20 17L20 18L19 18L19 19L17 19L17 17L14 17L14 16L15 16L15 15L14 15L14 16L13 16L13 17L12 17L12 15L13 15L13 14L12 14L12 13L9 13L9 14L11 14L11 18L13 18L13 19L12 19L12 21L11 21L11 20L10 20L10 19L6 19L6 20L7 20L7 21L5 21L5 20L4 20L4 21L5 21L5 22L7 22L7 23L4 23L4 22L3 22L3 23L4 23L4 25L5 25L5 24L8 24L8 21L9 21L9 24L10 24L10 27L9 27L9 28L11 28L11 26L13 26L13 27L12 27L12 29L15 29L15 30L16 30L16 31L14 31L14 32L16 32L16 33L17 33L17 32L18 32L18 31L17 31L17 30L19 30L19 28L21 28L21 27L22 27L22 28L23 28L23 27L24 27L24 28L26 28L26 29L27 29L27 30L26 30L26 31L25 31L25 32L26 32L26 33L25 33L25 36L26 36L26 35L27 35L27 36L28 36L28 35L29 35L29 34L30 34L30 35L31 35L31 34L30 34L30 33L28 33L28 35L27 35L27 34L26 34L26 33L27 33L27 31L28 31L28 29L27 29L27 28L26 28L26 26L28 26L28 28L30 28L30 26L31 26L31 28L32 28L32 26L33 26L33 28L34 28L34 30L33 30L33 31L34 31L34 32L33 32L33 33L32 33L32 35L33 35L33 33L34 33L34 32L35 32L35 31L34 31L34 30L35 30L35 29L36 29L36 28L35 28L35 27L34 27L34 26L33 26L33 25L30 25L30 22L33 22L33 21L30 21L30 18L33 18L33 17L30 17L30 14L32 14L32 16L33 16L33 13L34 13L34 12L35 12L35 13L36 13L36 12L35 12L35 11L34 11L34 12L33 12L33 13L30 13L30 10L29 10L29 9L27 9L27 8L28 8L28 6L27 6L27 8L26 8L26 4L27 4L27 3L26 3L26 4L25 4L25 3L24 3L24 4L25 4L25 5L22 5L22 4L21 4L21 7L22 7L22 8L23 8L23 9L21 9L21 8L20 8L20 3L21 3L21 2ZM10 3L10 4L11 4L11 3ZM8 5L8 7L9 7L9 5ZM22 6L22 7L23 7L23 8L24 8L24 9L26 9L26 10L25 10L25 11L21 11L21 12L24 12L24 13L26 13L26 14L24 14L24 15L23 15L23 16L22 16L22 15L21 15L21 14L20 14L20 11L18 11L18 12L19 12L19 13L18 13L18 15L19 15L19 14L20 14L20 15L21 15L21 16L20 16L20 17L22 17L22 18L20 18L20 19L19 19L19 20L20 20L20 21L19 21L19 22L20 22L20 23L21 23L21 24L20 24L20 25L19 25L19 26L20 26L20 27L21 27L21 26L22 26L22 27L23 27L23 26L24 26L24 27L25 27L25 26L26 26L26 25L29 25L29 26L30 26L30 25L29 25L29 24L28 24L28 23L29 23L29 22L30 22L30 21L29 21L29 20L28 20L28 19L29 19L29 18L30 18L30 17L29 17L29 14L30 14L30 13L29 13L29 10L27 10L27 9L26 9L26 8L25 8L25 6L24 6L24 7L23 7L23 6ZM6 8L6 9L11 9L11 8ZM31 8L31 9L32 9L32 8ZM20 9L20 10L21 10L21 9ZM3 10L3 11L4 11L4 10ZM6 10L6 11L7 11L7 10ZM8 10L8 11L9 11L9 10ZM25 11L25 12L26 12L26 13L27 13L27 14L29 14L29 13L27 13L27 12L28 12L28 11L27 11L27 12L26 12L26 11ZM6 13L6 14L7 14L7 13ZM25 15L25 16L26 16L26 19L25 19L25 20L24 20L24 18L22 18L22 20L21 20L21 19L20 19L20 20L21 20L21 21L20 21L20 22L23 22L23 25L26 25L26 23L27 23L27 22L29 22L29 21L26 21L26 20L27 20L27 18L29 18L29 17L27 17L27 16L28 16L28 15L27 15L27 16L26 16L26 15ZM9 16L9 17L8 17L8 18L9 18L9 17L10 17L10 16ZM6 17L6 18L7 18L7 17ZM15 18L15 19L14 19L14 20L15 20L15 21L12 21L12 22L13 22L13 23L12 23L12 25L13 25L13 24L14 24L14 25L18 25L18 24L19 24L19 23L18 23L18 24L16 24L16 22L15 22L15 21L18 21L18 20L15 20L15 19L16 19L16 18ZM1 19L1 20L2 20L2 19ZM9 20L9 21L10 21L10 23L11 23L11 21L10 21L10 20ZM23 21L23 22L24 22L24 24L25 24L25 21ZM14 23L14 24L15 24L15 23ZM6 25L6 26L8 26L8 25ZM20 25L20 26L21 26L21 25ZM15 26L15 27L14 27L14 28L15 28L15 29L18 29L18 28L15 28L15 27L16 27L16 26ZM29 29L29 32L32 32L32 29ZM30 30L30 31L31 31L31 30ZM16 31L16 32L17 32L17 31ZM8 32L8 37L9 37L9 36L10 36L10 35L9 35L9 34L11 34L11 37L12 37L12 35L13 35L13 34L11 34L11 32ZM0 0L0 7L7 7L7 0ZM1 1L1 6L6 6L6 1ZM2 2L2 5L5 5L5 2ZM30 0L30 7L37 7L37 0ZM31 1L31 6L36 6L36 1ZM32 2L32 5L35 5L35 2ZM0 30L0 37L7 37L7 30ZM1 31L1 36L6 36L6 31ZM2 32L2 35L5 35L5 32Z" fill="#000000"/></g></g></svg>
