<?xml version="1.0" encoding="UTF-8"?>
<svg xmlns="http://www.w3.org/2000/svg" version="1.1" width="320" height="320" viewBox="0 0 320 320"><rect x="0" y="0" width="320" height="320" fill="#fefefe"/><g transform="scale(7.111)"><g transform="translate(4,4)"><path fill-rule="evenodd" d="M10 0L10 1L8 1L8 3L9 3L9 4L8 4L8 8L6 8L6 9L4 9L4 8L3 8L3 9L2 9L2 8L0 8L0 9L2 9L2 10L1 10L1 11L0 11L0 12L1 12L1 11L2 11L2 12L4 12L4 11L5 11L5 12L6 12L6 13L7 13L7 14L6 14L6 15L7 15L7 16L6 16L6 17L5 17L5 18L6 18L6 19L7 19L7 18L9 18L9 20L8 20L8 22L6 22L6 21L7 21L7 20L5 20L5 19L4 19L4 18L3 18L3 17L4 17L4 14L3 14L3 13L2 13L2 15L1 15L1 14L0 14L0 16L1 16L1 17L2 17L2 19L1 19L1 18L0 18L0 19L1 19L1 21L0 21L0 22L2 22L2 23L0 23L0 25L1 25L1 26L0 26L0 27L1 27L1 28L0 28L0 29L2 29L2 27L3 27L3 29L4 29L4 27L5 27L5 26L4 26L4 27L3 27L3 26L2 26L2 24L3 24L3 25L5 25L5 22L6 22L6 23L7 23L7 24L6 24L6 25L7 25L7 26L6 26L6 27L7 27L7 28L5 28L5 29L7 29L7 28L8 28L8 31L9 31L9 33L8 33L8 34L9 34L9 35L8 35L8 37L12 37L12 36L14 36L14 37L15 37L15 36L16 36L16 37L19 37L19 35L21 35L21 37L23 37L23 36L25 36L25 37L27 37L27 35L26 35L26 34L28 34L28 33L29 33L29 35L28 35L28 37L29 37L29 35L30 35L30 33L33 33L33 34L32 34L32 35L33 35L33 34L34 34L34 35L37 35L37 34L35 34L35 33L34 33L34 32L35 32L35 31L36 31L36 33L37 33L37 30L36 30L36 29L37 29L37 26L36 26L36 29L35 29L35 31L34 31L34 29L33 29L33 27L34 27L34 26L35 26L35 24L34 24L34 25L33 25L33 26L32 26L32 27L31 27L31 25L32 25L32 24L33 24L33 23L34 23L34 21L35 21L35 23L37 23L37 22L36 22L36 21L37 21L37 20L36 20L36 19L37 19L37 17L36 17L36 19L34 19L34 21L33 21L33 20L30 20L30 19L32 19L32 18L35 18L35 16L37 16L37 12L36 12L36 11L37 11L37 9L36 9L36 8L34 8L34 11L33 11L33 10L32 10L32 9L33 9L33 8L30 8L30 11L31 11L31 10L32 10L32 12L30 12L30 14L29 14L29 13L28 13L28 14L29 14L29 15L28 15L28 17L29 17L29 18L30 18L30 19L27 19L27 12L26 12L26 11L25 11L25 12L24 12L24 11L22 11L22 10L21 10L21 9L20 9L20 8L23 8L23 10L27 10L27 9L26 9L26 8L27 8L27 6L28 6L28 7L29 7L29 5L28 5L28 4L29 4L29 3L27 3L27 2L28 2L28 1L29 1L29 0L27 0L27 1L26 1L26 3L27 3L27 6L26 6L26 4L25 4L25 2L24 2L24 1L23 1L23 0L22 0L22 2L24 2L24 4L23 4L23 3L20 3L20 2L21 2L21 1L20 1L20 2L19 2L19 0L18 0L18 2L16 2L16 1L17 1L17 0L15 0L15 2L14 2L14 1L13 1L13 2L14 2L14 3L12 3L12 7L11 7L11 4L10 4L10 3L9 3L9 2L11 2L11 0ZM15 2L15 3L14 3L14 4L13 4L13 7L12 7L12 8L13 8L13 9L14 9L14 10L15 10L15 11L14 11L14 12L12 12L12 16L10 16L10 15L11 15L11 13L9 13L9 10L11 10L11 8L10 8L10 5L9 5L9 8L8 8L8 9L9 9L9 10L8 10L8 11L6 11L6 10L7 10L7 9L6 9L6 10L5 10L5 11L6 11L6 12L7 12L7 13L9 13L9 14L7 14L7 15L9 15L9 17L11 17L11 18L10 18L10 19L11 19L11 21L10 21L10 20L9 20L9 21L10 21L10 23L11 23L11 25L12 25L12 24L13 24L13 27L15 27L15 29L13 29L13 28L12 28L12 26L10 26L10 27L9 27L9 26L7 26L7 27L8 27L8 28L9 28L9 31L12 31L12 32L13 32L13 33L14 33L14 34L15 34L15 35L14 35L14 36L15 36L15 35L16 35L16 36L18 36L18 34L22 34L22 36L23 36L23 35L25 35L25 32L26 32L26 33L28 33L28 32L27 32L27 31L25 31L25 30L28 30L28 28L29 28L29 27L28 27L28 25L29 25L29 26L30 26L30 24L31 24L31 23L33 23L33 21L32 21L32 22L31 22L31 23L30 23L30 21L29 21L29 20L27 20L27 19L25 19L25 18L26 18L26 16L25 16L25 15L22 15L22 16L20 16L20 14L22 14L22 13L20 13L20 14L19 14L19 12L20 12L20 11L19 11L19 8L20 8L20 6L21 6L21 7L22 7L22 6L23 6L23 8L26 8L26 6L25 6L25 7L24 7L24 5L21 5L21 4L20 4L20 6L19 6L19 2L18 2L18 3L17 3L17 4L16 4L16 6L15 6L15 5L14 5L14 4L15 4L15 3L16 3L16 2ZM17 4L17 6L16 6L16 7L15 7L15 6L14 6L14 7L13 7L13 8L14 8L14 9L15 9L15 8L17 8L17 10L16 10L16 11L15 11L15 12L14 12L14 13L13 13L13 15L15 15L15 16L16 16L16 17L17 17L17 18L16 18L16 20L19 20L19 18L18 18L18 16L19 16L19 17L20 17L20 18L21 18L21 17L20 17L20 16L19 16L19 14L18 14L18 12L17 12L17 13L16 13L16 14L17 14L17 15L15 15L15 12L16 12L16 11L18 11L18 7L19 7L19 6L18 6L18 4ZM17 6L17 7L18 7L18 6ZM14 7L14 8L15 8L15 7ZM2 10L2 11L4 11L4 10ZM28 10L28 12L29 12L29 10ZM35 10L35 11L34 11L34 13L35 13L35 14L36 14L36 12L35 12L35 11L36 11L36 10ZM23 12L23 13L24 13L24 12ZM32 12L32 13L31 13L31 14L32 14L32 15L30 15L30 16L29 16L29 17L30 17L30 16L31 16L31 17L34 17L34 16L35 16L35 15L34 15L34 14L33 14L33 12ZM25 13L25 14L26 14L26 13ZM9 14L9 15L10 15L10 14ZM33 15L33 16L34 16L34 15ZM7 16L7 17L6 17L6 18L7 18L7 17L8 17L8 16ZM12 16L12 18L11 18L11 19L12 19L12 20L13 20L13 18L14 18L14 20L15 20L15 17L14 17L14 16ZM22 16L22 19L21 19L21 20L20 20L20 21L24 21L24 20L25 20L25 19L23 19L23 18L24 18L24 17L25 17L25 16ZM2 19L2 20L3 20L3 22L5 22L5 21L4 21L4 19ZM26 20L26 21L25 21L25 24L26 24L26 23L27 23L27 24L28 24L28 23L29 23L29 22L28 22L28 23L27 23L27 22L26 22L26 21L27 21L27 20ZM35 20L35 21L36 21L36 20ZM11 21L11 22L12 22L12 21ZM14 21L14 22L15 22L15 21ZM17 21L17 22L19 22L19 23L20 23L20 24L23 24L23 25L24 25L24 24L23 24L23 22L22 22L22 23L21 23L21 22L19 22L19 21ZM8 22L8 23L9 23L9 22ZM3 23L3 24L4 24L4 23ZM14 23L14 24L16 24L16 23ZM7 24L7 25L8 25L8 24ZM17 24L17 25L16 25L16 27L17 27L17 28L16 28L16 29L18 29L18 30L16 30L16 31L17 31L17 32L16 32L16 33L15 33L15 32L14 32L14 30L13 30L13 32L14 32L14 33L15 33L15 34L18 34L18 33L17 33L17 32L18 32L18 31L19 31L19 32L20 32L20 33L22 33L22 34L23 34L23 33L24 33L24 32L25 32L25 31L24 31L24 32L22 32L22 31L23 31L23 30L24 30L24 29L25 29L25 28L26 28L26 29L27 29L27 28L28 28L28 27L27 27L27 26L26 26L26 25L25 25L25 26L23 26L23 27L24 27L24 28L22 28L22 25L21 25L21 28L22 28L22 29L20 29L20 27L18 27L18 26L20 26L20 25L18 25L18 24ZM36 24L36 25L37 25L37 24ZM1 26L1 27L2 27L2 26ZM25 26L25 27L26 27L26 26ZM30 27L30 28L31 28L31 27ZM11 28L11 29L10 29L10 30L11 30L11 29L12 29L12 28ZM18 28L18 29L19 29L19 31L20 31L20 32L21 32L21 31L20 31L20 29L19 29L19 28ZM29 29L29 32L32 32L32 29ZM30 30L30 31L31 31L31 30ZM10 32L10 33L9 33L9 34L10 34L10 33L11 33L11 32ZM9 35L9 36L11 36L11 35ZM30 36L30 37L31 37L31 36ZM32 36L32 37L33 37L33 36ZM34 36L34 37L37 37L37 36ZM0 0L0 7L7 7L7 0ZM1 1L1 6L6 6L6 1ZM2 2L2 5L5 5L5 2ZM30 0L30 7L37 7L37 0ZM31 1L31 6L36 6L36 1ZM32 2L32 5L35 5L35 2ZM0 30L0 37L7 37L7 30ZM1 31L1 36L6 36L6 31ZM2 32L2 35L5 35L5 32Z" fill="#000000"/></g></g></svg>
