<?xml version="1.0" encoding="UTF-8"?>
<svg xmlns="http://www.w3.org/2000/svg" version="1.1" width="320" height="320" viewBox="0 0 320 320"><rect x="0" y="0" width="320" height="320" fill="#fefefe"/><g transform="scale(7.111)"><g transform="translate(4,4)"><path fill-rule="evenodd" d="M8 0L8 1L10 1L10 0ZM14 0L14 1L13 1L13 2L11 2L11 4L10 4L10 3L9 3L9 2L8 2L8 5L9 5L9 6L8 6L8 7L9 7L9 8L8 8L8 9L7 9L7 8L6 8L6 9L4 9L4 8L0 8L0 11L1 11L1 9L2 9L2 10L3 10L3 11L2 11L2 12L3 12L3 11L4 11L4 12L5 12L5 13L3 13L3 14L5 14L5 16L6 16L6 17L7 17L7 16L8 16L8 15L7 15L7 14L5 14L5 13L7 13L7 12L6 12L6 11L8 11L8 10L9 10L9 13L8 13L8 14L9 14L9 17L8 17L8 20L6 20L6 19L7 19L7 18L5 18L5 19L3 19L3 17L2 17L2 16L4 16L4 15L2 15L2 14L1 14L1 13L0 13L0 14L1 14L1 15L0 15L0 16L1 16L1 17L2 17L2 19L0 19L0 21L1 21L1 22L0 22L0 24L3 24L3 25L1 25L1 27L0 27L0 28L1 28L1 27L4 27L4 28L3 28L3 29L7 29L7 28L8 28L8 27L9 27L9 28L10 28L10 30L9 30L9 29L8 29L8 30L9 30L9 32L10 32L10 33L8 33L8 37L12 37L12 36L15 36L15 37L16 37L16 36L17 36L17 37L21 37L21 36L20 36L20 35L18 35L18 34L20 34L20 33L22 33L22 34L21 34L21 35L22 35L22 36L23 36L23 35L24 35L24 34L25 34L25 37L26 37L26 36L27 36L27 37L28 37L28 35L26 35L26 34L28 34L28 33L30 33L30 35L32 35L32 36L33 36L33 37L34 37L34 36L35 36L35 37L37 37L37 36L35 36L35 34L37 34L37 33L36 33L36 32L37 32L37 30L36 30L36 26L35 26L35 29L34 29L34 31L36 31L36 32L35 32L35 33L34 33L34 32L33 32L33 27L34 27L34 26L33 26L33 25L34 25L34 24L35 24L35 23L34 23L34 21L36 21L36 22L37 22L37 21L36 21L36 19L37 19L37 16L34 16L34 15L35 15L35 14L34 14L34 15L33 15L33 16L34 16L34 17L36 17L36 19L35 19L35 18L32 18L32 15L30 15L30 16L29 16L29 15L28 15L28 17L27 17L27 14L28 14L28 13L29 13L29 12L28 12L28 11L30 11L30 8L29 8L29 6L28 6L28 7L27 7L27 5L28 5L28 4L29 4L29 3L27 3L27 2L25 2L25 4L26 4L26 3L27 3L27 5L24 5L24 7L25 7L25 6L26 6L26 7L27 7L27 8L29 8L29 10L28 10L28 11L26 11L26 10L27 10L27 9L26 9L26 10L23 10L23 12L24 12L24 13L23 13L23 14L22 14L22 13L20 13L20 12L19 12L19 15L20 15L20 14L21 14L21 16L22 16L22 17L21 17L21 19L19 19L19 18L18 18L18 17L19 17L19 16L18 16L18 17L17 17L17 15L15 15L15 14L16 14L16 13L17 13L17 14L18 14L18 12L17 12L17 10L16 10L16 12L15 12L15 10L14 10L14 11L11 11L11 12L10 12L10 10L9 10L9 8L10 8L10 7L11 7L11 8L12 8L12 7L13 7L13 9L15 9L15 5L16 5L16 7L17 7L17 8L18 8L18 11L19 11L19 8L18 8L18 7L19 7L19 6L20 6L20 7L21 7L21 6L22 6L22 7L23 7L23 4L24 4L24 1L23 1L23 3L20 3L20 4L21 4L21 5L19 5L19 0L18 0L18 3L17 3L17 1L16 1L16 3L15 3L15 2L14 2L14 1L15 1L15 0ZM20 0L20 1L21 1L21 2L22 2L22 0ZM26 0L26 1L27 1L27 0ZM28 1L28 2L29 2L29 1ZM12 3L12 5L10 5L10 6L9 6L9 7L10 7L10 6L11 6L11 7L12 7L12 5L13 5L13 7L14 7L14 5L13 5L13 4L15 4L15 3ZM16 4L16 5L18 5L18 6L17 6L17 7L18 7L18 6L19 6L19 5L18 5L18 4ZM32 8L32 9L34 9L34 13L35 13L35 12L36 12L36 14L37 14L37 12L36 12L36 10L35 10L35 8ZM36 8L36 9L37 9L37 8ZM6 9L6 10L4 10L4 11L6 11L6 10L7 10L7 9ZM20 9L20 11L22 11L22 10L21 10L21 9ZM31 10L31 11L33 11L33 10ZM24 11L24 12L25 12L25 11ZM12 12L12 14L11 14L11 15L10 15L10 16L12 16L12 17L10 17L10 18L12 18L12 17L14 17L14 18L13 18L13 20L14 20L14 21L15 21L15 22L14 22L14 23L11 23L11 22L12 22L12 21L11 21L11 20L12 20L12 19L11 19L11 20L10 20L10 19L9 19L9 21L8 21L8 22L7 22L7 21L5 21L5 22L4 22L4 21L3 21L3 24L7 24L7 25L6 25L6 26L7 26L7 27L6 27L6 28L7 28L7 27L8 27L8 26L7 26L7 25L9 25L9 26L11 26L11 25L12 25L12 24L13 24L13 26L12 26L12 28L11 28L11 31L12 31L12 32L11 32L11 34L9 34L9 36L10 36L10 35L14 35L14 34L15 34L15 36L16 36L16 35L17 35L17 36L18 36L18 35L17 35L17 34L18 34L18 33L17 33L17 34L15 34L15 33L16 33L16 32L15 32L15 33L13 33L13 30L14 30L14 27L15 27L15 29L16 29L16 28L17 28L17 30L16 30L16 31L17 31L17 30L18 30L18 28L19 28L19 31L18 31L18 32L20 32L20 31L21 31L21 32L22 32L22 31L24 31L24 32L23 32L23 33L24 33L24 32L25 32L25 34L26 34L26 33L28 33L28 30L26 30L26 29L25 29L25 28L26 28L26 27L25 27L25 25L26 25L26 24L25 24L25 23L26 23L26 22L27 22L27 24L28 24L28 22L29 22L29 21L30 21L30 23L29 23L29 25L28 25L28 26L27 26L27 27L28 27L28 28L27 28L27 29L28 29L28 28L30 28L30 27L31 27L31 28L32 28L32 27L31 27L31 26L32 26L32 25L31 25L31 26L30 26L30 24L31 24L31 22L32 22L32 24L33 24L33 21L34 21L34 20L35 20L35 19L34 19L34 20L33 20L33 21L32 21L32 19L30 19L30 18L29 18L29 19L27 19L27 17L25 17L25 16L26 16L26 14L27 14L27 12L26 12L26 13L25 13L25 14L23 14L23 15L22 15L22 16L23 16L23 17L22 17L22 19L21 19L21 20L23 20L23 21L20 21L20 22L19 22L19 21L17 21L17 18L16 18L16 20L15 20L15 17L16 17L16 16L15 16L15 15L14 15L14 14L15 14L15 12ZM30 12L30 14L31 14L31 13L32 13L32 14L33 14L33 12ZM9 13L9 14L10 14L10 13ZM13 13L13 14L12 14L12 16L14 16L14 15L13 15L13 14L14 14L14 13ZM1 15L1 16L2 16L2 15ZM6 15L6 16L7 16L7 15ZM23 15L23 16L25 16L25 15ZM30 16L30 17L31 17L31 16ZM23 17L23 18L24 18L24 19L23 19L23 20L24 20L24 21L23 21L23 22L22 22L22 23L24 23L24 22L25 22L25 21L27 21L27 19L26 19L26 18L24 18L24 17ZM24 19L24 20L26 20L26 19ZM29 19L29 20L30 20L30 19ZM10 21L10 22L8 22L8 23L7 23L7 22L5 22L5 23L7 23L7 24L8 24L8 23L9 23L9 25L11 25L11 23L10 23L10 22L11 22L11 21ZM17 22L17 23L16 23L16 24L14 24L14 26L13 26L13 27L14 27L14 26L16 26L16 27L17 27L17 26L18 26L18 27L19 27L19 28L22 28L22 29L23 29L23 30L24 30L24 31L26 31L26 32L27 32L27 31L26 31L26 30L24 30L24 29L23 29L23 28L24 28L24 27L23 27L23 28L22 28L22 26L23 26L23 24L21 24L21 23L20 23L20 25L18 25L18 24L17 24L17 23L19 23L19 22ZM36 24L36 25L37 25L37 24ZM4 25L4 26L5 26L5 25ZM16 25L16 26L17 26L17 25ZM21 25L21 26L22 26L22 25ZM28 26L28 27L29 27L29 26ZM12 28L12 29L13 29L13 28ZM29 29L29 32L32 32L32 29ZM30 30L30 31L31 31L31 30ZM32 33L32 34L33 34L33 35L34 35L34 34L33 34L33 33ZM22 34L22 35L23 35L23 34ZM30 36L30 37L31 37L31 36ZM0 0L0 7L7 7L7 0ZM1 1L1 6L6 6L6 1ZM2 2L2 5L5 5L5 2ZM30 0L30 7L37 7L37 0ZM31 1L31 6L36 6L36 1ZM32 2L32 5L35 5L35 2ZM0 30L0 37L7 37L7 30ZM1 31L1 36L6 36L6 31ZM2 32L2 35L5 35L5 32Z" fill="#000000"/></g></g></svg>
