<?xml version="1.0" encoding="UTF-8"?>
<svg xmlns="http://www.w3.org/2000/svg" version="1.1" width="320" height="320" viewBox="0 0 320 320"><rect x="0" y="0" width="320" height="320" fill="#fefefe"/><g transform="scale(7.111)"><g transform="translate(4,4)"><path fill-rule="evenodd" d="M8 0L8 4L9 4L9 5L8 5L8 7L9 7L9 6L10 6L10 9L9 9L9 10L5 10L5 9L7 9L7 8L4 8L4 12L3 12L3 13L2 13L2 14L3 14L3 15L2 15L2 16L1 16L1 14L0 14L0 16L1 16L1 18L2 18L2 17L3 17L3 19L8 19L8 21L7 21L7 20L4 20L4 22L3 22L3 21L1 21L1 20L0 20L0 21L1 21L1 23L0 23L0 24L1 24L1 23L4 23L4 22L5 22L5 21L7 21L7 22L6 22L6 23L8 23L8 24L6 24L6 25L5 25L5 26L4 26L4 24L2 24L2 25L0 25L0 26L3 26L3 27L5 27L5 26L6 26L6 27L7 27L7 28L6 28L6 29L8 29L8 30L10 30L10 31L11 31L11 32L12 32L12 33L13 33L13 34L15 34L15 35L14 35L14 36L13 36L13 35L12 35L12 36L11 36L11 37L12 37L12 36L13 36L13 37L15 37L15 36L17 36L17 37L19 37L19 35L18 35L18 34L19 34L19 33L20 33L20 35L21 35L21 37L22 37L22 36L25 36L25 35L24 35L24 34L25 34L25 33L22 33L22 31L24 31L24 32L25 32L25 31L26 31L26 30L25 30L25 27L24 27L24 26L25 26L25 25L26 25L26 29L27 29L27 30L28 30L28 31L27 31L27 32L26 32L26 33L27 33L27 32L28 32L28 33L30 33L30 35L29 35L29 34L27 34L27 35L29 35L29 36L30 36L30 37L33 37L33 35L34 35L34 36L35 36L35 37L37 37L37 36L36 36L36 35L34 35L34 34L37 34L37 31L36 31L36 32L35 32L35 31L33 31L33 25L31 25L31 24L30 24L30 21L31 21L31 23L33 23L33 21L31 21L31 20L30 20L30 17L31 17L31 19L34 19L34 20L35 20L35 21L36 21L36 22L37 22L37 20L36 20L36 18L35 18L35 16L37 16L37 15L36 15L36 13L37 13L37 12L36 12L36 13L35 13L35 11L36 11L36 10L35 10L35 9L37 9L37 8L33 8L33 9L32 9L32 8L31 8L31 12L30 12L30 9L29 9L29 8L28 8L28 9L27 9L27 6L26 6L26 3L27 3L27 5L28 5L28 7L29 7L29 5L28 5L28 2L29 2L29 1L28 1L28 0L27 0L27 1L28 1L28 2L26 2L26 0L25 0L25 1L24 1L24 2L26 2L26 3L24 3L24 4L22 4L22 1L21 1L21 3L20 3L20 0L18 0L18 1L16 1L16 0L15 0L15 1L16 1L16 2L14 2L14 3L15 3L15 4L14 4L14 5L16 5L16 3L20 3L20 4L19 4L19 5L18 5L18 4L17 4L17 6L16 6L16 7L15 7L15 6L14 6L14 7L13 7L13 6L12 6L12 7L11 7L11 3L10 3L10 2L9 2L9 0ZM13 0L13 1L11 1L11 2L12 2L12 5L13 5L13 1L14 1L14 0ZM18 1L18 2L19 2L19 1ZM20 4L20 6L19 6L19 7L18 7L18 6L17 6L17 7L18 7L18 8L17 8L17 9L16 9L16 8L15 8L15 7L14 7L14 9L16 9L16 11L18 11L18 13L16 13L16 12L15 12L15 13L13 13L13 12L14 12L14 11L15 11L15 10L13 10L13 9L12 9L12 8L13 8L13 7L12 7L12 8L11 8L11 9L10 9L10 11L11 11L11 12L10 12L10 13L11 13L11 14L12 14L12 13L13 13L13 14L15 14L15 13L16 13L16 16L15 16L15 15L14 15L14 17L16 17L16 18L17 18L17 19L20 19L20 21L19 21L19 20L18 20L18 21L16 21L16 19L15 19L15 18L13 18L13 17L12 17L12 16L13 16L13 15L12 15L12 16L11 16L11 15L10 15L10 14L7 14L7 13L6 13L6 12L7 12L7 11L6 11L6 12L5 12L5 13L3 13L3 14L5 14L5 15L4 15L4 18L7 18L7 17L9 17L9 16L11 16L11 17L10 17L10 18L9 18L9 19L10 19L10 20L9 20L9 21L11 21L11 22L12 22L12 21L13 21L13 22L15 22L15 21L16 21L16 22L19 22L19 23L18 23L18 25L16 25L16 24L15 24L15 23L14 23L14 25L16 25L16 26L19 26L19 27L20 27L20 25L21 25L21 27L23 27L23 28L24 28L24 27L23 27L23 26L22 26L22 24L23 24L23 25L25 25L25 24L26 24L26 25L28 25L28 26L29 26L29 25L30 25L30 28L32 28L32 26L31 26L31 25L30 25L30 24L29 24L29 25L28 25L28 24L26 24L26 23L27 23L27 22L24 22L24 24L23 24L23 21L25 21L25 20L26 20L26 21L28 21L28 23L29 23L29 21L30 21L30 20L29 20L29 21L28 21L28 20L27 20L27 18L26 18L26 15L25 15L25 13L26 13L26 14L27 14L27 13L28 13L28 15L27 15L27 17L28 17L28 19L29 19L29 17L30 17L30 16L31 16L31 17L33 17L33 18L34 18L34 19L35 19L35 18L34 18L34 16L33 16L33 14L35 14L35 13L33 13L33 10L32 10L32 12L31 12L31 13L30 13L30 12L29 12L29 9L28 9L28 11L27 11L27 13L26 13L26 11L22 11L22 10L25 10L25 9L26 9L26 10L27 10L27 9L26 9L26 6L25 6L25 5L22 5L22 6L21 6L21 4ZM20 6L20 9L18 9L18 11L19 11L19 12L20 12L20 14L22 14L22 15L21 15L21 16L22 16L22 17L20 17L20 16L19 16L19 15L18 15L18 14L19 14L19 13L18 13L18 14L17 14L17 16L16 16L16 17L17 17L17 18L19 18L19 17L20 17L20 18L21 18L21 21L20 21L20 23L19 23L19 25L20 25L20 24L22 24L22 20L24 20L24 18L25 18L25 19L26 19L26 18L25 18L25 16L23 16L23 15L24 15L24 14L22 14L22 11L21 11L21 12L20 12L20 11L19 11L19 10L20 10L20 9L21 9L21 10L22 10L22 9L23 9L23 6L22 6L22 7L21 7L21 6ZM24 6L24 7L25 7L25 6ZM0 8L0 12L2 12L2 11L1 11L1 10L3 10L3 9L2 9L2 8ZM21 8L21 9L22 9L22 8ZM24 8L24 9L25 9L25 8ZM34 10L34 11L35 11L35 10ZM8 11L8 13L9 13L9 11ZM12 11L12 12L11 12L11 13L12 13L12 12L13 12L13 11ZM24 12L24 13L25 13L25 12ZM28 12L28 13L29 13L29 16L28 16L28 17L29 17L29 16L30 16L30 13L29 13L29 12ZM31 13L31 16L32 16L32 14L33 14L33 13ZM6 14L6 15L5 15L5 17L7 17L7 16L8 16L8 15L7 15L7 14ZM6 15L6 16L7 16L7 15ZM18 16L18 17L19 17L19 16ZM10 18L10 19L11 19L11 18ZM12 19L12 20L11 20L11 21L12 21L12 20L13 20L13 21L15 21L15 19L14 19L14 20L13 20L13 19ZM8 22L8 23L9 23L9 22ZM34 22L34 24L36 24L36 25L35 25L35 26L37 26L37 24L36 24L36 23L35 23L35 22ZM10 23L10 24L8 24L8 25L6 25L6 26L8 26L8 27L9 27L9 28L8 28L8 29L10 29L10 30L12 30L12 29L13 29L13 30L15 30L15 29L16 29L16 30L17 30L17 31L14 31L14 33L15 33L15 34L16 34L16 33L17 33L17 34L18 34L18 33L19 33L19 32L20 32L20 33L21 33L21 31L22 31L22 28L20 28L20 29L19 29L19 28L18 28L18 29L16 29L16 27L15 27L15 26L13 26L13 25L12 25L12 24L13 24L13 23L12 23L12 24L11 24L11 23ZM10 24L10 25L11 25L11 24ZM8 25L8 26L9 26L9 27L10 27L10 26L9 26L9 25ZM12 27L12 28L11 28L11 29L12 29L12 28L13 28L13 29L15 29L15 27L14 27L14 28L13 28L13 27ZM34 27L34 28L35 28L35 27ZM36 27L36 29L35 29L35 30L37 30L37 27ZM0 28L0 29L2 29L2 28ZM4 28L4 29L5 29L5 28ZM27 28L27 29L28 29L28 28ZM20 29L20 30L21 30L21 29ZM29 29L29 32L32 32L32 29ZM30 30L30 31L31 31L31 30ZM8 31L8 33L10 33L10 32L9 32L9 31ZM12 31L12 32L13 32L13 31ZM17 31L17 33L18 33L18 31ZM31 33L31 34L32 34L32 35L33 35L33 34L34 34L34 33L33 33L33 34L32 34L32 33ZM9 34L9 35L8 35L8 37L9 37L9 35L10 35L10 34ZM21 34L21 35L22 35L22 34ZM30 35L30 36L31 36L31 35ZM26 36L26 37L27 37L27 36ZM0 0L0 7L7 7L7 0ZM1 1L1 6L6 6L6 1ZM2 2L2 5L5 5L5 2ZM30 0L30 7L37 7L37 0ZM31 1L31 6L36 6L36 1ZM32 2L32 5L35 5L35 2ZM0 30L0 37L7 37L7 30ZM1 31L1 36L6 36L6 31ZM2 32L2 35L5 35L5 32Z" fill="#000000"/></g></g></svg>
