<?xml version="1.0" encoding="UTF-8"?>
<svg xmlns="http://www.w3.org/2000/svg" version="1.1" width="320" height="320" viewBox="0 0 320 320"><rect x="0" y="0" width="320" height="320" fill="#fefefe"/><g transform="scale(7.111)"><g transform="translate(4,4)"><path fill-rule="evenodd" d="M9 0L9 1L8 1L8 3L9 3L9 4L8 4L8 8L6 8L6 9L8 9L8 10L6 10L6 11L7 11L7 12L5 12L5 13L4 13L4 11L5 11L5 10L3 10L3 9L4 9L4 8L3 8L3 9L2 9L2 8L0 8L0 9L2 9L2 10L0 10L0 11L3 11L3 13L4 13L4 14L2 14L2 12L1 12L1 13L0 13L0 14L1 14L1 15L0 15L0 17L1 17L1 18L2 18L2 19L3 19L3 17L4 17L4 18L5 18L5 17L7 17L7 18L6 18L6 19L7 19L7 18L8 18L8 14L6 14L6 13L7 13L7 12L8 12L8 13L10 13L10 12L11 12L11 11L10 11L10 10L12 10L12 9L11 9L11 8L10 8L10 7L11 7L11 6L12 6L12 8L13 8L13 6L14 6L14 8L15 8L15 9L14 9L14 10L16 10L16 12L17 12L17 13L16 13L16 15L13 15L13 12L12 12L12 13L11 13L11 14L12 14L12 16L11 16L11 15L10 15L10 14L9 14L9 15L10 15L10 16L9 16L9 17L10 17L10 18L9 18L9 20L8 20L8 21L10 21L10 22L9 22L9 23L8 23L8 22L6 22L6 23L4 23L4 22L5 22L5 21L4 21L4 20L5 20L5 19L4 19L4 20L2 20L2 21L3 21L3 23L4 23L4 25L5 25L5 27L4 27L4 29L8 29L8 31L9 31L9 33L8 33L8 34L9 34L9 35L8 35L8 37L9 37L9 36L10 36L10 34L12 34L12 33L11 33L11 32L10 32L10 30L9 30L9 29L10 29L10 28L9 28L9 27L10 27L10 25L11 25L11 28L12 28L12 30L11 30L11 31L12 31L12 32L13 32L13 30L14 30L14 32L17 32L17 35L18 35L18 31L19 31L19 32L20 32L20 33L21 33L21 34L23 34L23 33L24 33L24 31L27 31L27 32L28 32L28 33L26 33L26 32L25 32L25 34L24 34L24 35L20 35L20 34L19 34L19 35L20 35L20 36L21 36L21 37L27 37L27 36L26 36L26 35L27 35L27 34L28 34L28 33L29 33L29 35L28 35L28 37L29 37L29 35L30 35L30 33L33 33L33 34L32 34L32 35L33 35L33 34L34 34L34 35L37 35L37 34L35 34L35 33L34 33L34 32L36 32L36 33L37 33L37 32L36 32L36 31L37 31L37 30L36 30L36 29L37 29L37 26L36 26L36 29L35 29L35 31L34 31L34 29L33 29L33 27L34 27L34 26L35 26L35 24L34 24L34 25L33 25L33 26L32 26L32 27L31 27L31 25L32 25L32 24L33 24L33 23L34 23L34 21L35 21L35 23L37 23L37 22L36 22L36 21L37 21L37 20L36 20L36 19L37 19L37 17L36 17L36 19L34 19L34 21L33 21L33 20L30 20L30 19L32 19L32 18L35 18L35 16L37 16L37 12L36 12L36 11L37 11L37 9L36 9L36 8L34 8L34 11L33 11L33 10L32 10L32 9L33 9L33 8L30 8L30 11L31 11L31 10L32 10L32 12L30 12L30 14L29 14L29 13L28 13L28 14L29 14L29 15L28 15L28 17L29 17L29 18L30 18L30 19L27 19L27 12L26 12L26 11L25 11L25 10L27 10L27 9L26 9L26 8L27 8L27 6L28 6L28 7L29 7L29 5L28 5L28 4L29 4L29 3L27 3L27 2L28 2L28 1L29 1L29 0L27 0L27 1L26 1L26 3L27 3L27 6L26 6L26 4L25 4L25 3L24 3L24 2L25 2L25 1L22 1L22 3L23 3L23 4L25 4L25 5L24 5L24 7L23 7L23 6L22 6L22 7L21 7L21 6L20 6L20 5L22 5L22 4L21 4L21 3L20 3L20 2L19 2L19 0L18 0L18 2L16 2L16 1L17 1L17 0L16 0L16 1L14 1L14 0L12 0L12 1L11 1L11 2L9 2L9 1L10 1L10 0ZM14 2L14 3L16 3L16 4L15 4L15 8L17 8L17 9L16 9L16 10L19 10L19 9L21 9L21 10L20 10L20 11L19 11L19 12L18 12L18 11L17 11L17 12L18 12L18 13L19 13L19 14L18 14L18 17L16 17L16 16L17 16L17 15L16 15L16 16L15 16L15 17L13 17L13 16L12 16L12 17L11 17L11 18L10 18L10 21L11 21L11 19L12 19L12 20L13 20L13 21L14 21L14 22L15 22L15 23L14 23L14 24L12 24L12 28L14 28L14 29L15 29L15 31L16 31L16 30L17 30L17 31L18 31L18 30L19 30L19 31L20 31L20 32L21 32L21 30L20 30L20 29L21 29L21 28L20 28L20 27L21 27L21 26L25 26L25 27L26 27L26 26L27 26L27 27L28 27L28 28L27 28L27 29L26 29L26 28L23 28L23 27L22 27L22 29L24 29L24 30L23 30L23 31L22 31L22 32L23 32L23 31L24 31L24 30L28 30L28 28L29 28L29 27L28 27L28 25L29 25L29 26L30 26L30 24L31 24L31 23L33 23L33 21L32 21L32 22L31 22L31 23L30 23L30 21L29 21L29 20L27 20L27 19L25 19L25 18L26 18L26 16L25 16L25 14L26 14L26 13L25 13L25 11L24 11L24 10L22 10L22 9L23 9L23 8L17 8L17 7L18 7L18 6L19 6L19 7L20 7L20 6L19 6L19 5L20 5L20 3L19 3L19 5L18 5L18 3L16 3L16 2ZM12 3L12 4L9 4L9 5L10 5L10 6L9 6L9 7L10 7L10 6L11 6L11 5L12 5L12 6L13 6L13 3ZM16 4L16 5L17 5L17 4ZM16 6L16 7L17 7L17 6ZM25 6L25 8L26 8L26 6ZM8 8L8 9L10 9L10 8ZM8 10L8 11L9 11L9 10ZM28 10L28 12L29 12L29 10ZM35 10L35 11L34 11L34 13L35 13L35 14L36 14L36 12L35 12L35 11L36 11L36 10ZM14 11L14 12L15 12L15 11ZM20 11L20 12L21 12L21 13L20 13L20 15L19 15L19 16L20 16L20 17L18 17L18 18L20 18L20 19L15 19L15 20L14 20L14 18L13 18L13 20L14 20L14 21L15 21L15 20L19 20L19 21L17 21L17 22L16 22L16 23L15 23L15 24L14 24L14 25L13 25L13 27L15 27L15 24L17 24L17 25L16 25L16 27L17 27L17 28L16 28L16 29L20 29L20 28L19 28L19 26L20 26L20 25L19 25L19 26L18 26L18 24L17 24L17 23L19 23L19 24L21 24L21 25L25 25L25 26L26 26L26 25L25 25L25 24L26 24L26 23L27 23L27 24L28 24L28 23L29 23L29 22L28 22L28 23L27 23L27 22L26 22L26 21L27 21L27 20L26 20L26 21L25 21L25 20L23 20L23 19L22 19L22 18L23 18L23 15L24 15L24 14L23 14L23 13L24 13L24 11L23 11L23 12L22 12L22 11ZM32 12L32 13L31 13L31 14L32 14L32 15L30 15L30 16L29 16L29 17L30 17L30 16L31 16L31 17L34 17L34 16L35 16L35 15L34 15L34 14L33 14L33 12ZM21 13L21 15L23 15L23 14L22 14L22 13ZM4 15L4 16L7 16L7 15ZM33 15L33 16L34 16L34 15ZM1 16L1 17L3 17L3 16ZM21 16L21 17L20 17L20 18L21 18L21 17L22 17L22 16ZM24 16L24 18L25 18L25 16ZM20 19L20 21L19 21L19 22L20 22L20 23L21 23L21 21L23 21L23 20L21 20L21 19ZM0 20L0 21L1 21L1 20ZM6 20L6 21L7 21L7 20ZM35 20L35 21L36 21L36 20ZM0 22L0 23L2 23L2 22ZM10 22L10 24L7 24L7 23L6 23L6 24L7 24L7 25L6 25L6 26L7 26L7 25L8 25L8 27L9 27L9 25L10 25L10 24L11 24L11 22ZM22 22L22 23L24 23L24 24L25 24L25 23L24 23L24 22ZM2 24L2 25L1 25L1 26L0 26L0 27L1 27L1 28L0 28L0 29L3 29L3 28L2 28L2 27L1 27L1 26L2 26L2 25L3 25L3 24ZM36 24L36 25L37 25L37 24ZM6 27L6 28L7 28L7 27ZM30 27L30 28L31 28L31 27ZM29 29L29 32L32 32L32 29ZM30 30L30 31L31 31L31 30ZM9 33L9 34L10 34L10 33ZM14 33L14 34L15 34L15 33ZM25 34L25 35L26 35L26 34ZM14 35L14 36L15 36L15 35ZM12 36L12 37L13 37L13 36ZM17 36L17 37L19 37L19 36ZM30 36L30 37L31 37L31 36ZM32 36L32 37L33 37L33 36ZM34 36L34 37L37 37L37 36ZM0 0L0 7L7 7L7 0ZM1 1L1 6L6 6L6 1ZM2 2L2 5L5 5L5 2ZM30 0L30 7L37 7L37 0ZM31 1L31 6L36 6L36 1ZM32 2L32 5L35 5L35 2ZM0 30L0 37L7 37L7 30ZM1 31L1 36L6 36L6 31ZM2 32L2 35L5 35L5 32Z" fill="#000000"/></g></g></svg>
