<svg width="24" height="24" viewBox="0 0 24 24" fill="none" xmlns="http://www.w3.org/2000/svg">
<g clip-path="url(#clip0_39864_43403)">
<path fill-rule="evenodd" clip-rule="evenodd" d="M12.3668 0.175767L20.5842 5.00185C21.0086 5.24858 21.2364 5.68167 21.2364 6.17577V15.6975C21.2364 16.191 21.0086 16.6247 20.5842 16.8714L15.3668 19.8714C15.1878 19.9989 15.106 20.2961 15.106 20.5236V24.0453C11.6428 22.0344 8.176 20.0297 4.70924 18.0249C4.04438 17.6404 3.37951 17.2559 2.71467 16.8714C2.29032 16.6247 2.0625 16.1916 2.0625 15.6975V6.17577C2.0625 5.69577 2.29032 5.24858 2.71467 5.00185L10.9321 0.175767C11.3564 -0.0709589 11.9425 -0.0709589 12.3668 0.175767ZM10.7446 7.80816C10.7817 7.68711 10.8016 7.55856 10.8016 7.42535C10.8016 6.70498 10.2177 6.121 9.49729 6.121C8.77692 6.121 8.19295 6.70498 8.19295 7.42535C8.19295 8.14572 8.77692 8.72969 9.49729 8.72969C9.84918 8.72969 10.1685 8.59035 10.4031 8.36383L13.9891 10.5643C13.952 10.6854 13.9321 10.8139 13.9321 10.9471C13.9321 11.6675 14.516 12.2515 15.2364 12.2515C15.9568 12.2515 16.5408 11.6675 16.5408 10.9471C16.5408 10.2267 15.9568 9.64277 15.2364 9.64277C14.8845 9.64277 14.5652 9.78212 14.3305 10.0087L10.7446 7.80816ZM9.49729 15.7732C10.2177 15.7732 10.8016 15.1892 10.8016 14.4689C10.8016 14.3357 10.7817 14.2071 10.7446 14.0861L14.0673 12.0471L13.4439 11.6645L10.4032 13.5304C10.1685 13.3039 9.84919 13.1645 9.49729 13.1645C8.77692 13.1645 8.19295 13.7485 8.19295 14.4689C8.19295 15.1892 8.77692 15.7732 9.49729 15.7732Z" fill="#0F2B46"/>
</g>
<defs>
<clipPath id="clip0_39864_43403">
<rect width="24" height="24" fill="white"/>
</clipPath>
</defs>
</svg>
